<svg xmlns="http://www.w3.org/2000/svg" width="800" height="570"><g transform="translate(30, 20)"><g><g transform="translate(0, 490)" fill="none" font-size="10" font-family="sans-serif" text-anchor="middle"><path class="domain" stroke="#000" d="M0.5000,5V0.5000H750.5000V5"></path><g class="tick" opacity="1" transform="translate(0.5,0)"><line stroke="#000" y2="5"></line><text fill="#000" y="10" dy="0.71em">0.0</text></g><g class="tick" opacity="1" transform="translate(75.5,0)"><line stroke="#000" y2="5"></line><text fill="#000" y="10" dy="0.71em">0.5</text></g><g class="tick" opacity="1" transform="translate(150.5,0)"><line stroke="#000" y2="5"></line><text fill="#000" y="10" dy="0.71em">1.0</text></g><g class="tick" opacity="1" transform="translate(225.5,0)"><line stroke="#000" y2="5"></line><text fill="#000" y="10" dy="0.71em">1.5</text></g><g class="tick" opacity="1" transform="translate(300.5,0)"><line stroke="#000" y2="5"></line><text fill="#000" y="10" dy="0.71em">2.0</text></g><g class="tick" opacity="1" transform="translate(375.5,0)"><line stroke="#000" y2="5"></line><text fill="#000" y="10" dy="0.71em">2.5</text></g><g class="tick" opacity="1" transform="translate(450.5,0)"><line stroke="#000" y2="5"></line><text fill="#000" y="10" dy="0.71em">3.0</text></g><g class="tick" opacity="1" transform="translate(525.5,0)"><line stroke="#000" y2="5"></line><text fill="#000" y="10" dy="0.71em">3.5</text></g><g class="tick" opacity="1" transform="translate(600.5,0)"><line stroke="#000" y2="5"></line><text fill="#000" y="10" dy="0.71em">4.0</text></g><g class="tick" opacity="1" transform="translate(675.5,0)"><line stroke="#000" y2="5"></line><text fill="#000" y="10" dy="0.71em">4.5</text></g><g class="tick" opacity="1" transform="translate(750.5,0)"><line stroke="#000" y2="5"></line><text fill="#000" y="10" dy="0.71em">5.0</text></g></g><g fill="none" font-size="10" font-family="sans-serif" text-anchor="end"><path class="domain" stroke="#000" d="M-5,490.5000H0.5000V0.5000H-5"></path><g class="tick" opacity="1" transform="translate(0,466.5)"><line stroke="#000" x2="-5"></line><text fill="#000" x="-10" dy="0.32em">10</text></g><g class="tick" opacity="1" transform="translate(0,408.5)"><line stroke="#000" x2="-5"></line><text fill="#000" x="-10" dy="0.32em">20</text></g><g class="tick" opacity="1" transform="translate(0,350.5)"><line stroke="#000" x2="-5"></line><text fill="#000" x="-10" dy="0.32em">30</text></g><g class="tick" opacity="1" transform="translate(0,293.5)"><line stroke="#000" x2="-5"></line><text fill="#000" x="-10" dy="0.32em">40</text></g><g class="tick" opacity="1" transform="translate(0,235.5)"><line stroke="#000" x2="-5"></line><text fill="#000" x="-10" dy="0.32em">50</text></g><g class="tick" opacity="1" transform="translate(0,178.5)"><line stroke="#000" x2="-5"></line><text fill="#000" x="-10" dy="0.32em">60</text></g><g class="tick" opacity="1" transform="translate(0,120.5)"><line stroke="#000" x2="-5"></line><text fill="#000" x="-10" dy="0.32em">70</text></g><g class="tick" opacity="1" transform="translate(0,63.5)"><line stroke="#000" x2="-5"></line><text fill="#000" x="-10" dy="0.32em">80</text></g><g class="tick" opacity="1" transform="translate(0,5.5)"><line stroke="#000" x2="-5"></line><text fill="#000" x="-10" dy="0.32em">90</text></g></g><g fill="none" stroke-width="1.5"><path stroke="steelblue" d="M0,477L25,460.3333C50,443.6667,100,410.3333,150,412.5000C200,414.6667,250,452.3333,300,442.5000C350,432.6667,400,375.3333,450,341.6667C500,308,550,298,600,245C650,192,700,96,725,48L750,0"></path><path stroke="darkorange" d="M0,246L25,275C50,304,100,362,150,389.1667C200,416.3333,250,412.6667,300,374.5000C350,336.3333,400,263.6667,450,269C500,274.3333,550,357.6667,600,365.8333C650,374,700,307,725,273.5000L750,240"></path><path stroke="steelblue" d="M0,416L25,407.6667C50,399.3333,100,382.6667,150,384.8333C200,387,250,408,300,365.1667C350,322.3333,400,215.6667,450,163.6667C500,111.6667,550,114.3333,600,101C650,87.6667,700,58.3333,725,43.6667L750,29"></path></g></g></g></svg>